# xmcd
#
# Track frame offsets: 
#        150
#        14175
#        25502
#        36220
#        45875
#        59527
#        71205
#        83900
#        96472
#        111740
#        122390
#        134447
#        145125
#        156575
#
# Disc length: 2256 seconds
#
# Revision: 0
# Processed by: cddbd v1.5.2PL0 Copyright (c) Steve Scherf et al.
# Submitted via: ExactAudioCopy v0.95b4
#
DISCID=cd08ce0e
DTITLE=O.V. Wright - 8 Men And 4 Women
DYEAR=1967
DGENRE=Soul
TTITLE0=Eight Men And Four Women
TTITLE1=Why Don't You Believe Me
TTITLE2=Can't Find True Love
TTITLE3=Don't Want To Sit Down
TTITLE4=Everybody Knows
TTITLE5=I Could Write A Book
TTITLE6=Wish I Were That Boy
TTITLE7=Bachelor's Blues
TTITLE8=You're Gonna Make Me Cry
TTITLE9=Monkey Dog
TTITLE10=You've Been Crying
TTITLE11=I Can't Believe
TTITLE12=Motherless Child
TTITLE13=If It's Only For Tonight
EXTD=
EXTT0=
EXTT1=
EXTT2=
EXTT3=
EXTT4=
EXTT5=
EXTT6=
EXTT7=
EXTT8=
EXTT9=
EXTT10=
EXTT11=
EXTT12=
EXTT13=
PLAYORDER=
